<?xml version="1.0" encoding="UTF-8"?>
<svg id="uuid-ae894f2a-a0b2-4ced-8d83-827b786679ec" data-name="レイヤー 2" xmlns="http://www.w3.org/2000/svg" viewBox="0 0 325.61 73.43">
  <defs>
    <style>
      .uuid-4afec5f1-23b4-4038-b22c-4d6b2ca21e98 {
        fill: #55bee6;
      }

      .uuid-3d005e3f-209c-4e85-adc1-6d4a02648edb {
        fill: #7d7d7d;
      }

      .uuid-182b83b8-cacb-4fec-b314-aea7ef15c798 {
        fill: #2d7dc3;
      }

      .uuid-af2f3da0-8a60-466a-8537-05762d09ba43 {
        fill: #7dbe50;
      }

      .uuid-7cff90ca-df7d-40aa-a912-5f9c2ebac3fb {
        fill: #3c9bd2;
      }
    </style>
  </defs>
  <g id="uuid-5fdcd703-9dce-4572-9f3e-a957b3f6ca14" data-name="レイヤー 1">
    <g>
      <g>
        <g>
          <path class="uuid-3d005e3f-209c-4e85-adc1-6d4a02648edb" d="M91.68,14.99c.33.15.72.3,1.23.45,1.02.27,1.44.18,2.61.09,2.79-.21,5.04-.42,7.8-.84,1.44-.24,1.59-.27,2.85-.81.21-.09.45-.15.6-.15.75,0,1.65.81,2.22,1.29.6.48,1.62,1.29,1.62,2.1,0,.45-.48.84-.78,1.11-.48.48-.78,1.17-1.11,1.86-2.34,4.95-6.72,9.21-11.78,12.17-.51.33-3.54,1.89-4.08,1.89-.18,0-.27-.06-.27-.21s.18-.27.45-.45c3.15-2.22,8.61-6.39,11.81-12.02.57-.93,2.01-3.81,2.01-4.74,0-.36-.27-.57-.66-.57-.48,0-3.3.51-5.73.96-1.86.33-4.02.69-5.52,1.5-.36.18-.63.3-.9.3-.69,0-1.5-.66-2.31-1.44-.69-.63-.93-.99-.93-1.8,0-.6.09-.96.27-.96.09,0,.3.15.6.27Z"/>
          <path class="uuid-3d005e3f-209c-4e85-adc1-6d4a02648edb" d="M126.34,19.4c2.07,0,6.09-.6,8.31-.96,1.32-.21,1.56-.33,2.22-.72.3-.18.45-.24.6-.24.48,0,1.41.96,1.98,1.56.45.48,1.17,1.35,1.17,2.01,0,.45-.48.6-1.08.72-.99.18-3.54,1.11-4.47,1.68-.66.39-1.02,1.44-1.44,2.73-.87,2.67-1.92,4.5-3.81,6.27-1.05.96-2.19,1.74-3.54,2.34-.36.15-.96.39-1.2.39-.09,0-.18-.03-.18-.12,0-.12.09-.24.3-.39,1.53-1.17,2.97-2.61,3.99-4.08,1.41-2.01,2.31-4.44,2.31-5.97,0-.69-.12-.96-.42-1.53-.06-.12-.09-.24-.09-.36,0-.3.42-.36.78-.36.72,0,1.47.27,2.19.57.12.06.24.09.33.09.51,0,2.52-2.37,2.52-2.88,0-.18-.18-.27-.36-.27-.93,0-3.42.42-4.47.6-1.65.3-3.81.81-5.37,1.47-.21.09-.51.18-.69.18-.78,0-2.76-1.89-2.76-2.85,0-.15.09-.24.24-.24.21,0,1.56.36,2.94.36Z"/>
          <path class="uuid-3d005e3f-209c-4e85-adc1-6d4a02648edb" d="M168.65,21.35c1.02-.06,5.22-.27,5.61-.27,1.44,0,2.34.78,2.34,1.56,0,1.02-1.62,1.08-2.43,1.08-1.11,0-3-.06-4.5-.06-2.82,0-7.98.15-10.7.45-.78.09-1.44.24-2.19.45-.33.09-.63.18-.96.18-.84,0-1.92-.93-2.37-1.71-.24-.39-.51-1.08-.51-1.53,0-.24.09-.42.27-.42.09,0,.39.12.66.21,1.32.48,2.67.48,4.11.48,3.78,0,8.19-.3,10.68-.42Z"/>
          <path class="uuid-3d005e3f-209c-4e85-adc1-6d4a02648edb" d="M197.33,16.85c-.36,0-4.44.99-5.52,1.26-.6.15-.84.24-1.29.51-.3.18-.6.36-.9.36-.36,0-.9-.3-1.53-.72-.78-.48-.87-.66-1.14-1.35-.15-.36-.33-.96-.33-1.14s.06-.27.21-.27c.33,0,1.53.54,2.58.54,1.41,0,4.68-.33,6.18-.57,1.68-.27,1.92-.33,2.88-1.05.36-.27.63-.36.84-.36.84,0,2.82,1.62,2.82,2.43,0,.27-.3.48-.84.87-.45.36-.72.72-1.2,1.44-.87,1.32-1.83,2.7-2.67,3.87-.21.27-.27.45-.27.66,0,.27.15.45.48.63,1.59.78,3.06,1.62,4.5,2.73,1.47,1.11,2.97,2.76,2.97,4.17,0,.78-.66,1.47-1.47,1.47-.87,0-1.29-.6-2.1-2.13-1.11-2.04-2.01-3.33-3.54-4.86-.57-.57-.99-.93-1.41-.93-.24,0-.45.09-.75.42-2.22,2.55-5.04,4.86-7.89,6.39-1.02.51-2.43,1.11-2.85,1.11-.15,0-.24-.06-.24-.18,0-.15.3-.36.9-.78,3.21-2.25,6.39-5.34,8.76-8.61,1.32-1.83,3.21-4.83,3.21-5.58,0-.21-.15-.33-.39-.33Z"/>
          <path class="uuid-3d005e3f-209c-4e85-adc1-6d4a02648edb" d="M221.13,11.27c1.11,0,3.42.96,3.42,2.07,0,.18-.09.39-.21.75-.12.36-.21.63-.3,1.11-.09.69-.18,2.79-.18,3.45,0,.6.21.87.9,1.02,1.95.42,6.72,2.34,6.72,4.86,0,.75-.63,1.32-1.35,1.32-.78,0-1.38-.66-1.86-1.35-.78-1.2-1.83-2.73-2.94-3.48-.36-.27-.75-.51-1.02-.51-.42,0-.51.81-.51,2.13,0,2.49.03,4.95.15,7.38.03.51.06,1.05.06,1.56,0,1.2-.03,2.88-1.02,2.88-.93,0-1.86-2.01-1.86-3,0-.15.06-.54.12-.9.24-1.38.27-5.04.3-7.53.03-3.54.03-8.43-.24-9.45-.18-.69-.45-1.11-.96-1.62-.24-.21-.27-.24-.27-.33,0-.3.72-.36,1.05-.36Z"/>
          <path class="uuid-3d005e3f-209c-4e85-adc1-6d4a02648edb" d="M247.38,12.62c1.02,0,2.67,1.11,2.67,1.74,0,.51-.12,1.32-.12,2.28,0,1.68.03,5.16.18,6.66.06.39.09.9.09,1.11,0,.81-.69,1.68-1.32,1.68-.75,0-1.53-1.62-1.53-2.52,0-.33.24-1.32.24-3.9s.12-4.41-1.08-5.82c-.27-.3-.42-.51-.42-.72,0-.3.84-.51,1.29-.51ZM255.23,11.57c-.09-.09-.15-.18-.15-.27,0-.24.78-.27,1.14-.27,1.59,0,3.45.63,3.45,1.68,0,.12-.03.3-.12.57-.09.27-.12.45-.18.75-.12.72-.09,2.19-.09,3.09-.03,4.14-.45,7.59-2.58,11.31-1.68,2.97-4.53,5.79-7.62,7.47-.24.12-.39.21-.54.21-.12,0-.21-.06-.21-.18,0-.15.39-.48.72-.81,5.88-5.61,7.65-10.5,7.65-18.29,0-2.82-.12-3.39-1.47-5.25Z"/>
          <path class="uuid-3d005e3f-209c-4e85-adc1-6d4a02648edb" d="M288.5,21.35c1.02-.06,5.22-.27,5.61-.27,1.44,0,2.34.78,2.34,1.56,0,1.02-1.62,1.08-2.43,1.08-1.11,0-3-.06-4.5-.06-2.82,0-7.98.15-10.7.45-.78.09-1.44.24-2.19.45-.33.09-.63.18-.96.18-.84,0-1.92-.93-2.37-1.71-.24-.39-.51-1.08-.51-1.53,0-.24.09-.42.27-.42.09,0,.39.12.66.21,1.32.48,2.67.48,4.11.48,3.78,0,8.19-.3,10.67-.42Z"/>
          <path class="uuid-3d005e3f-209c-4e85-adc1-6d4a02648edb" d="M306.69,14.99c.33.15.72.3,1.23.45,1.02.27,1.44.18,2.61.09,2.79-.21,5.04-.42,7.8-.84,1.44-.24,1.59-.27,2.85-.81.21-.09.45-.15.6-.15.75,0,1.65.81,2.22,1.29.6.48,1.62,1.29,1.62,2.1,0,.45-.48.84-.78,1.11-.48.48-.78,1.17-1.11,1.86-2.34,4.95-6.72,9.21-11.78,12.17-.51.33-3.54,1.89-4.08,1.89-.18,0-.27-.06-.27-.21s.18-.27.45-.45c3.15-2.22,8.6-6.39,11.81-12.02.57-.93,2.01-3.81,2.01-4.74,0-.36-.27-.57-.66-.57-.48,0-3.3.51-5.73.96-1.86.33-4.02.69-5.52,1.5-.36.18-.63.3-.9.3-.69,0-1.5-.66-2.31-1.44-.69-.63-.93-.99-.93-1.8,0-.6.09-.96.27-.96.09,0,.3.15.6.27Z"/>
        </g>
        <g>
          <path class="uuid-3d005e3f-209c-4e85-adc1-6d4a02648edb" d="M156.21,61.64c.2-.04.42-.08.74-.24.32-.16.4-.76.4-1.98v-4.8c0-.38-.22-.6-.6-.6h-.84c-.12,0-.18-.06-.18-.14s.02-.12.08-.16c.14-.08.68-.34,1.02-.5.34-.18.48-.32.48-.8-.02-2.52.26-3.72,1.28-4.86.76-.86,2.02-1.56,3.38-1.56.78,0,1.54.18,2.1.52.32.22.4.36.4.52,0,.26-.56,1.14-.94,1.14-.14,0-.22-.04-.36-.16-.88-.82-1.5-1.24-2.26-1.24-1.24,0-1.86,1.14-1.86,3.68v2.02c-.02.38.2.6.6.58h1.26c.34,0,.5.24.5.46,0,.26-.16.5-.5.5h-1.28c-.38,0-.6.22-.6.6l.02,4.08c0,1.96.06,2.5.64,2.7.28.1.58.18.78.22.3.06.26.44-.02.44-.36,0-1.1-.06-2.36-.06-.94,0-1.7.06-1.9.06-.28,0-.28-.36.02-.42Z"/>
          <path class="uuid-3d005e3f-209c-4e85-adc1-6d4a02648edb" d="M168.54,62c-1.24,0-1.46.02-1.8.04-.12,0-.2-.08-.2-.18s.08-.2.2-.22c.3-.06.52-.12.76-.26.3-.14.36-.82.36-2.58,0-1.34,0-1.94-.02-2.94-.02-.9-.06-1.52-.32-1.52-.18,0-.5.04-.82.08-.14.02-.22-.08-.22-.18,0-.08.06-.18.2-.22,1.1-.3,1.78-.6,2.68-1.08.22-.14.5,0,.42.34-.14.62-.2,1.44-.2,2.8v2.68c0,1.74.02,2.4.26,2.6.22.16.5.22.86.28.14.02.2.12.2.22s-.08.2-.22.2c-.32,0-.82-.06-2.14-.06ZM167.6,49.78c0-.64.5-1.16,1.14-1.16s1.16.52,1.16,1.16-.52,1.16-1.16,1.16-1.14-.52-1.14-1.16Z"/>
          <path class="uuid-3d005e3f-209c-4e85-adc1-6d4a02648edb" d="M176.45,61.62c.2-.04.44-.12.66-.24.34-.16.42-.94.42-2.22,0-1.5-.02-2.18-.02-3.12-.02-.98-.14-1.56-.44-1.56-.26,0-.52.04-.74.08-.14.02-.22-.08-.22-.18,0-.08.04-.16.16-.2,1.02-.4,1.68-.74,2.42-1.2.06-.04.14-.06.2-.06.16,0,.32.1.32.28-.02.2-.02.38-.02.56,0,.44.22.5.7.08,1-.84,1.32-.94,1.62-.94.54,0,1.24.44,1.24.7,0,.42-.64,1.24-.92,1.34-.1.06-.2.04-.3-.04-.54-.34-.82-.48-1.04-.48-.32,0-.66.2-.98.54-.32.34-.34.8-.34,1.78v1.96c0,1.64.16,2.38.48,2.6.22.14.66.22,1.38.28.12.02.18.1.18.2,0,.12-.1.26-.26.26-.2,0-1.68-.04-2.7-.04s-1.3.02-1.78.04c-.28,0-.28-.38-.02-.42Z"/>
          <path class="uuid-3d005e3f-209c-4e85-adc1-6d4a02648edb" d="M188.2,61.96c-.36-.2-.48-.4-.54-.74-.06-.36-.14-.94-.18-1.44v-.04c0-.3.36-.38.48-.12.68,1.62,1.66,2.26,2.54,2.26s1.32-.56,1.32-1.4c0-.96-.54-1.4-1.9-2.36-1.54-1.04-2-1.66-2-2.82,0-1.38,1.38-2.38,3.04-2.38.68,0,1.32.14,1.8.36.46.18.58.28.6.76.02.32.02.8.04,1.48,0,.24-.32.32-.4.1-.46-1.3-1.16-2.2-2.28-2.2-.84,0-1.28.58-1.28,1.22,0,.78.42,1.26,1.6,2.04,1.8,1.22,2.34,1.86,2.34,3.06,0,1.32-1.2,2.66-3.2,2.66-.68,0-1.32-.08-1.98-.44Z"/>
          <path class="uuid-3d005e3f-209c-4e85-adc1-6d4a02648edb" d="M199.99,60.08c.06-3,.06-3.82.08-5.44,0-.38-.22-.6-.6-.6h-.56c-.16,0-.22-.08-.22-.18,0-.08.04-.16.14-.2.26-.12.64-.28.96-.44.36-.16.58-.3.78-.6.36-.52.66-1.08.82-1.58.04-.1.14-.14.22-.14s.18.06.18.18v1.44c-.02.4.2.62.6.6.68,0,1.18-.02,1.42-.02.32,0,.5.24.5.46,0,.24-.18.48-.52.48h-1.42c-.38,0-.6.22-.6.6v4.96c0,1.1.44,1.62,1.24,1.62.46,0,.8-.04,1.02-.1.2-.04.3.04.3.16,0,.1-.04.18-.16.26-.72.44-1.36.68-2.12.68-1.26,0-2.08-.92-2.06-2.14Z"/>
          <path class="uuid-3d005e3f-209c-4e85-adc1-6d4a02648edb" d="M217.34,62.04c-.28,0-.3-.38.02-.44.1-.02.5-.1.76-.24.3-.14.42-.64.42-2.68v-6.1c0-1.42-.02-2.7-.08-3.38-.04-1.18-.12-1.64-.36-1.66-.22,0-.62.06-.94.1-.14.02-.22-.1-.22-.2s.06-.2.2-.24c1.18-.28,2.06-.66,2.86-1.1.08-.04.16-.08.24-.08.18,0,.34.18.26.48-.08.4-.18,1.08-.2,2.38-.02.8-.04,2.12-.04,3.56v6.2c0,2.04.08,2.54.32,2.7.18.14.76.24,1.04.28.12.02.18.12.18.22s-.06.22-.22.22c-.44,0-1.08-.06-2.2-.06s-1.84.04-2.04.04Z"/>
          <path class="uuid-3d005e3f-209c-4e85-adc1-6d4a02648edb" d="M226.44,57.7v-.04c.02-1.46.46-2.4,1.18-3.2.9-.96,2.18-1.48,3.4-1.48,1.8,0,2.92,1.16,3.06,2.1v.04c0,.26-.14.44-.34.5l-4.96,1.28c-.34.08-.54.32-.5.68.22,2.04,1.66,3.62,3.74,3.62.54,0,.96-.1,1.54-.36.3-.12.5.18.22.38-1.02.76-1.92.98-3.04.98-2.22,0-4.3-1.6-4.3-4.5ZM231.64,55.54c.52-.14.54-.44.3-.92-.38-.68-1.04-1.02-1.7-1-.88.02-1.74.62-1.96,2.16-.06.5.12.7.66.54l2.7-.78Z"/>
          <path class="uuid-3d005e3f-209c-4e85-adc1-6d4a02648edb" d="M241.31,62.26c-1.26,0-2-.92-2-1.86,0-.64.26-1.26,1.18-1.66l3-1.26c.3-.14.46-.36.46-.7.02-.34.02-.6.02-.82-.02-1.12-.66-2.1-1.58-2.1-.42,0-.76.18-.92.34-.14.16-.24.66-.3,1.02-.1.54-.7.94-1.12.94-.26,0-.46-.1-.5-.4-.04-.2-.04-.44,0-.58.18-.62,2.62-2.24,3.88-2.24.98,0,2.34.9,2.32,2.96-.04,1.64-.1,2.52-.12,4.16-.04.86.16,1.18.56,1.18.2,0,.4-.1.68-.38.12-.12.3-.04.3.1,0,.04-.02.08-.04.12-.52.86-1.08,1.18-1.72,1.18-.48,0-1.08-.22-1.36-.88-.14-.36-.26-.42-.56-.14-.72.7-1.34,1-2.14,1.02h-.04ZM243.37,60.88c.42-.28.54-.58.56-1.32.02-.38.02-.76.02-1.16.02-.46-.2-.6-.7-.36-.5.24-.94.46-1.4.7-.54.28-.7.7-.7,1.28,0,.76.42,1.24,1.1,1.26.44,0,.82-.2,1.12-.4Z"/>
          <path class="uuid-3d005e3f-209c-4e85-adc1-6d4a02648edb" d="M252.43,61.64c.2-.04.42-.08.74-.24.32-.16.4-.76.4-1.98v-4.8c0-.38-.22-.6-.6-.6h-.84c-.12,0-.18-.06-.18-.14s.02-.12.08-.16c.14-.08.68-.34,1.02-.5.34-.18.48-.32.48-.8-.02-2.52.26-3.72,1.28-4.86.76-.86,2.02-1.56,3.38-1.56.78,0,1.54.18,2.1.52.32.22.4.36.4.52,0,.26-.56,1.14-.94,1.14-.14,0-.22-.04-.36-.16-.88-.82-1.5-1.24-2.26-1.24-1.24,0-1.86,1.14-1.86,3.68v2.02c-.02.38.2.6.6.58h1.26c.34,0,.5.24.5.46,0,.26-.16.5-.5.5h-1.28c-.38,0-.6.22-.6.6l.02,4.08c0,1.96.06,2.5.64,2.7.28.1.58.18.78.22.3.06.26.44-.02.44-.36,0-1.1-.06-2.36-.06-.94,0-1.7.06-1.9.06-.28,0-.28-.36.02-.42Z"/>
        </g>
      </g>
      <g>
        <circle class="uuid-182b83b8-cacb-4fec-b314-aea7ef15c798" cx="56.52" cy="31.95" r="5.59" transform="translate(13.07 80.19) rotate(-77.47)"/>
        <circle class="uuid-7cff90ca-df7d-40aa-a912-5f9c2ebac3fb" cx="43.71" cy="43.55" r="3.92" transform="translate(-8.28 76.77) rotate(-77.47)"/>
        <circle class="uuid-4afec5f1-23b4-4038-b22c-4d6b2ca21e98" cx="28.64" cy="46.74" r="2.74" transform="translate(-23.2 64.56) rotate(-77.47)"/>
        <path class="uuid-af2f3da0-8a60-466a-8537-05762d09ba43" d="M.08,44.83c-.86,12.88,5.02,24.18,11.32,28.6-5.62-7.4-7.73-18.68-3.76-25.96,6.8-12.46,22.51-9.55,34.36-19.92,8.1-7.08,12.01-15.25,10.91-27.56C43.34,12.88,17.75,10.36,8.96,37.84c0,0,8.71-12.17,25.52-17.74,0,0-24.42,12.8-30.07,29.99,0,0-1.57-12.04,4.82-27.95,0,0-8.21,8.95-9.13,22.69Z"/>
      </g>
    </g>
  </g>
</svg>